<svg xmlns="http://www.w3.org/2000/svg" width="900" height="360" viewBox="0 0 900 360">
  <rect width="100%" height="100%" fill="#fbfaf7"/>
  <text x="70" y="28" font-family="Georgia, serif" font-size="22" fill="#2f2a1f">Week 2 Spike Load Test</text>
  <line x1="70" y1="305" x2="875" y2="305" stroke="#8d8575"/>
  <line x1="70" y1="45" x2="70" y2="305" stroke="#8d8575"/>
  <text x="70" y="342" font-family="Verdana, sans-serif" font-size="12" fill="#5f574a">time during run</text>
  <text x="12" y="57" font-family="Verdana, sans-serif" font-size="12" fill="#5f574a">req/sec</text>
  <polyline points="70.0,305.0 72.8,305.0 75.6,305.0 78.3,299.1 81.1,279.5 83.9,278.2 86.7,246.2 89.4,196.5 92.2,180.9 95.0,143.2 97.8,121.8 100.5,103.0 103.3,103.6 106.1,91.8 108.9,66.7 111.6,48.9 114.4,45.0 117.2,53.4 120.0,49.7 122.7,70.1 125.5,80.7 128.3,96.1 131.1,95.2 133.8,82.4 136.6,92.6 139.4,92.0 142.2,89.5 144.9,90.7 147.7,89.9 150.5,89.9 153.3,83.6 156.1,81.2 158.8,85.4 161.6,97.9 164.4,101.8 167.2,110.0 169.9,121.2 172.7,118.5 175.5,128.3 178.3,125.7 181.0,132.6 183.8,131.0 186.6,122.8 189.4,111.0 192.1,103.8 194.9,90.3 197.7,74.4 200.5,79.1 203.2,70.5 206.0,70.9 208.8,72.6 211.6,76.7 214.3,79.7 217.1,81.2 219.9,83.6 222.7,91.8 225.4,100.1 228.2,95.2 231.0,97.9 233.8,97.5 236.6,99.3 239.3,97.9 242.1,99.3 244.9,102.2 247.7,106.1 250.4,115.3 253.2,112.0 256.0,109.3 258.8,111.6 261.5,110.2 264.3,104.4 267.1,108.9 269.9,112.0 272.6,112.0 275.4,109.7 278.2,94.4 281.0,95.6 283.7,102.2 286.5,100.8 289.3,105.0 292.1,107.7 294.8,98.1 297.6,103.0 300.4,95.0 303.2,96.9 305.9,97.5 308.7,94.4 311.5,93.4 314.3,94.0 317.1,99.7 319.8,97.5 322.6,95.9 325.4,95.4 328.2,99.9 330.9,106.5 333.7,108.3 336.5,110.6 339.3,109.9 342.0,107.3 344.8,107.5 347.6,114.2 350.4,118.3 353.1,113.2 355.9,120.0 358.7,113.6 361.5,111.8 364.2,115.7 367.0,116.9 369.8,121.2 372.6,118.9 375.3,116.3 378.1,123.8 380.9,121.4 383.7,113.0 386.4,110.2 389.2,112.0 392.0,106.3 394.8,109.9 397.6,106.5 400.3,107.1 403.1,109.9 405.9,100.3 408.7,105.9 411.4,107.7 414.2,117.3 417.0,119.1 419.8,121.8 422.5,122.0 425.3,120.0 428.1,119.3 430.9,115.3 433.6,117.5 436.4,112.0 439.2,117.9 442.0,115.5 444.7,113.4 447.5,114.6 450.3,111.0 453.1,113.0 455.8,113.4 458.6,115.5 461.4,114.4 464.2,119.5 466.9,117.5 469.7,117.7 472.5,117.3 475.3,115.1 478.1,116.1 480.8,117.5 483.6,116.7 486.4,120.8 489.2,124.2 491.9,123.2 494.7,126.1 497.5,127.7 500.3,128.5 503.0,127.7 505.8,127.3 508.6,126.1 511.4,126.3 514.1,119.5 516.9,120.6 519.7,125.7 522.5,119.6 525.2,115.3 528.0,115.7 530.8,120.8 533.6,123.6 536.3,126.5 539.1,125.7 541.9,130.4 544.7,126.7 547.4,126.5 550.2,126.9 553.0,129.6 555.8,122.8 558.6,120.8 561.3,122.0 564.1,124.2 566.9,125.7 569.7,128.1 572.4,125.7 575.2,119.1 578.0,129.1 580.8,129.3 583.5,136.1 586.3,135.1 589.1,138.1 591.9,131.6 594.6,132.8 597.4,133.6 600.2,136.1 603.0,137.3 605.7,129.1 608.5,127.1 611.3,129.3 614.1,134.3 616.8,132.2 619.6,138.5 622.4,141.6 625.2,144.3 627.9,146.9 630.7,146.1 633.5,145.7 636.3,145.1 639.1,141.6 641.8,143.6 644.6,142.6 647.4,142.6 650.2,134.3 652.9,133.2 655.7,127.7 658.5,131.0 661.3,140.0 664.0,138.1 666.8,138.3 669.6,133.0 672.4,133.6 675.1,135.1 677.9,134.5 680.7,133.4 683.5,138.7 686.2,136.9 689.0,130.6 691.8,132.2 694.6,131.0 697.3,130.0 700.1,129.8 702.9,133.6 705.7,135.3 708.4,137.7 711.2,137.7 714.0,140.2 716.8,144.1 719.6,143.7 722.3,148.1 725.1,150.4 727.9,151.8 730.7,151.6 733.4,154.5 736.2,154.1 739.0,151.4 741.8,152.8 744.5,150.4 747.3,154.5 750.1,150.6 752.9,154.5 755.6,147.3 758.4,144.7 761.2,138.9 764.0,139.8 766.7,140.8 769.5,140.4 772.3,139.0 775.1,134.7 777.8,138.9 780.6,134.5 783.4,138.1 786.2,138.1 788.9,141.2 791.7,138.1 794.5,142.6 797.3,141.8 800.1,140.2 802.8,137.7 805.6,130.4 808.4,134.7 811.2,136.5 813.9,139.2 816.7,139.2 819.5,139.2 822.3,134.7 825.0,137.7 827.8,148.8 830.6,147.1 833.4,152.6 836.1,151.0 838.9,152.4 841.7,151.4 844.5,151.4 847.2,148.3 850.0,142.8 852.8,138.1 855.6,129.6 858.3,136.3 861.1,138.5 863.9,130.2 866.7,128.7 869.4,131.0 872.2,134.5 875.0,138.9" fill="none" stroke="#0c6b58" stroke-width="3"/>
  <polyline points="70.0,305.0 72.8,218.3 75.6,131.7 78.3,45.0 81.1,45.0 83.9,45.0 86.7,45.0 89.4,45.0 92.2,45.0 95.0,45.0 97.8,45.0 100.5,45.0 103.3,45.0 106.1,45.0 108.9,45.0 111.6,45.0 114.4,45.0 117.2,45.0 120.0,45.0 122.7,45.0 125.5,45.0 128.3,45.0 131.1,45.0 133.8,45.0 136.6,45.0 139.4,45.0 142.2,45.0 144.9,45.0 147.7,45.0 150.5,45.0 153.3,45.0 156.1,45.0 158.8,45.0 161.6,45.0 164.4,45.0 167.2,45.0 169.9,45.0 172.7,45.0 175.5,45.0 178.3,45.0 181.0,45.0 183.8,45.0 186.6,45.0 189.4,45.0 192.1,45.0 194.9,45.0 197.7,45.0 200.5,45.0 203.2,45.0 206.0,45.0 208.8,45.0 211.6,45.0 214.3,45.0 217.1,45.0 219.9,45.0 222.7,45.0 225.4,45.0 228.2,45.0 231.0,45.0 233.8,45.0 236.6,45.0 239.3,45.0 242.1,45.0 244.9,45.0 247.7,45.0 250.4,45.0 253.2,45.0 256.0,45.0 258.8,45.0 261.5,45.0 264.3,45.0 267.1,45.0 269.9,45.0 272.6,45.0 275.4,45.0 278.2,45.0 281.0,45.0 283.7,45.0 286.5,45.0 289.3,45.0 292.1,45.0 294.8,45.0 297.6,45.0 300.4,45.0 303.2,45.0 305.9,45.0 308.7,45.0 311.5,45.0 314.3,45.0 317.1,45.0 319.8,45.0 322.6,45.0 325.4,45.0 328.2,45.0 330.9,45.0 333.7,45.0 336.5,45.0 339.3,45.0 342.0,45.0 344.8,45.0 347.6,45.0 350.4,45.0 353.1,45.0 355.9,45.0 358.7,45.0 361.5,45.0 364.2,45.0 367.0,45.0 369.8,45.0 372.6,45.0 375.3,45.0 378.1,45.0 380.9,45.0 383.7,45.0 386.4,45.0 389.2,45.0 392.0,45.0 394.8,45.0 397.6,45.0 400.3,45.0 403.1,45.0 405.9,45.0 408.7,45.0 411.4,45.0 414.2,45.0 417.0,45.0 419.8,45.0 422.5,45.0 425.3,45.0 428.1,45.0 430.9,45.0 433.6,45.0 436.4,45.0 439.2,45.0 442.0,45.0 444.7,45.0 447.5,45.0 450.3,45.0 453.1,45.0 455.8,45.0 458.6,45.0 461.4,45.0 464.2,45.0 466.9,45.0 469.7,45.0 472.5,45.0 475.3,45.0 478.1,45.0 480.8,45.0 483.6,45.0 486.4,45.0 489.2,45.0 491.9,45.0 494.7,45.0 497.5,45.0 500.3,45.0 503.0,45.0 505.8,45.0 508.6,45.0 511.4,45.0 514.1,45.0 516.9,45.0 519.7,45.0 522.5,45.0 525.2,45.0 528.0,45.0 530.8,45.0 533.6,45.0 536.3,45.0 539.1,45.0 541.9,45.0 544.7,45.0 547.4,45.0 550.2,45.0 553.0,45.0 555.8,45.0 558.6,45.0 561.3,45.0 564.1,45.0 566.9,45.0 569.7,45.0 572.4,45.0 575.2,45.0 578.0,45.0 580.8,45.0 583.5,45.0 586.3,45.0 589.1,45.0 591.9,45.0 594.6,45.0 597.4,45.0 600.2,45.0 603.0,45.0 605.7,45.0 608.5,45.0 611.3,45.0 614.1,45.0 616.8,45.0 619.6,45.0 622.4,45.0 625.2,45.0 627.9,45.0 630.7,45.0 633.5,45.0 636.3,45.0 639.1,45.0 641.8,45.0 644.6,45.0 647.4,45.0 650.2,45.0 652.9,45.0 655.7,45.0 658.5,45.0 661.3,45.0 664.0,45.0 666.8,45.0 669.6,45.0 672.4,45.0 675.1,45.0 677.9,45.0 680.7,45.0 683.5,45.0 686.2,45.0 689.0,45.0 691.8,45.0 694.6,45.0 697.3,45.0 700.1,45.0 702.9,45.0 705.7,45.0 708.4,45.0 711.2,45.0 714.0,45.0 716.8,45.0 719.6,45.0 722.3,45.0 725.1,45.0 727.9,45.0 730.7,45.0 733.4,45.0 736.2,45.0 739.0,45.0 741.8,45.0 744.5,45.0 747.3,45.0 750.1,45.0 752.9,45.0 755.6,45.0 758.4,45.0 761.2,45.0 764.0,45.0 766.7,45.0 769.5,45.0 772.3,45.0 775.1,45.0 777.8,45.0 780.6,45.0 783.4,45.0 786.2,45.0 788.9,45.0 791.7,45.0 794.5,45.0 797.3,45.0 800.1,45.0 802.8,45.0 805.6,45.0 808.4,45.0 811.2,45.0 813.9,45.0 816.7,45.0 819.5,45.0 822.3,45.0 825.0,45.0 827.8,45.0 830.6,45.0 833.4,45.0 836.1,45.0 838.9,45.0 841.7,45.0 844.5,45.0 847.2,45.0 850.0,45.0 852.8,45.0 855.6,45.0 858.3,45.0 861.1,45.0 863.9,45.0 866.7,45.0 869.4,45.0 872.2,45.0 875.0,45.0" fill="none" stroke="#c76d2c" stroke-width="2" stroke-dasharray="6 5" opacity="0.8"/>
  <text x="680" y="28" font-family="Verdana, sans-serif" font-size="12" fill="#0c6b58">solid: requests/sec</text>
  <text x="680" y="46" font-family="Verdana, sans-serif" font-size="12" fill="#c76d2c">dashed: user ramp</text>
  <text x="70" y="325" font-family="Verdana, sans-serif" font-size="12" fill="#5f574a">peak rps: 132.70</text>
</svg>
