<svg xmlns="http://www.w3.org/2000/svg" width="900" height="360" viewBox="0 0 900 360">
  <rect width="100%" height="100%" fill="#fbfaf7"/>
  <text x="70" y="28" font-family="Georgia, serif" font-size="22" fill="#2f2a1f">Week 2 Gradual Load Test</text>
  <line x1="70" y1="305" x2="875" y2="305" stroke="#8d8575"/>
  <line x1="70" y1="45" x2="70" y2="305" stroke="#8d8575"/>
  <text x="70" y="342" font-family="Verdana, sans-serif" font-size="12" fill="#5f574a">time during run</text>
  <text x="12" y="57" font-family="Verdana, sans-serif" font-size="12" fill="#5f574a">req/sec</text>
  <polyline points="70.0,305.0 71.4,305.0 72.7,305.0 74.1,269.7 75.5,257.9 76.8,233.0 78.2,211.8 79.6,196.7 80.9,187.5 82.3,172.1 83.6,163.5 85.0,152.6 86.4,148.8 87.7,125.6 89.1,104.0 90.5,95.8 91.8,88.3 93.2,75.4 94.6,76.9 95.9,78.4 97.3,79.7 98.7,82.7 100.0,83.1 101.4,79.8 102.7,79.2 104.1,74.8 105.5,75.9 106.8,78.1 108.2,67.9 109.6,69.1 110.9,59.3 112.3,53.2 113.7,53.4 115.0,52.7 116.4,54.4 117.8,48.4 119.1,45.0 120.5,50.4 121.8,55.3 123.2,52.7 124.6,62.4 125.9,70.1 127.3,73.3 128.7,83.5 130.0,85.7 131.4,92.2 132.8,93.2 134.1,97.1 135.5,100.7 136.9,98.3 138.2,95.1 139.6,92.8 140.9,93.8 142.3,99.8 143.7,112.4 145.0,118.0 146.4,113.8 147.8,105.3 149.1,101.1 150.5,118.3 151.9,118.0 153.2,111.1 154.6,102.2 156.0,96.3 157.3,86.6 158.7,87.7 160.1,93.7 161.4,97.6 162.8,95.8 164.1,81.1 165.5,89.1 166.9,95.2 168.2,97.6 169.6,94.5 171.0,93.9 172.3,92.4 173.7,96.4 175.1,98.5 176.4,100.2 177.8,100.3 179.2,99.3 180.5,101.5 181.9,102.7 183.2,105.6 184.6,104.4 186.0,102.4 187.3,102.7 188.7,107.9 190.1,108.6 191.4,114.2 192.8,109.9 194.2,112.4 195.5,123.4 196.9,123.6 198.3,127.8 199.6,127.7 201.0,128.4 202.3,123.8 203.7,128.1 205.1,123.8 206.4,127.6 207.8,129.5 209.2,118.8 210.5,124.8 211.9,123.0 213.3,122.2 214.6,118.5 216.0,118.8 217.4,115.3 218.7,118.8 220.1,118.3 221.4,112.0 222.8,118.7 224.2,112.0 225.5,116.1 226.9,119.6 228.3,121.7 229.6,123.9 231.0,129.5 232.4,135.0 233.7,132.3 235.1,136.9 236.5,135.9 237.8,146.3 239.2,146.0 240.6,148.8 241.9,155.7 243.3,159.4 244.6,160.5 246.0,150.1 247.4,154.4 248.7,151.3 250.1,148.6 251.5,143.4 252.8,143.7 254.2,142.4 255.6,136.6 256.9,133.7 258.3,126.4 259.7,133.8 261.0,131.5 262.4,132.7 263.7,135.3 265.1,138.2 266.5,135.3 267.8,136.6 269.2,138.8 270.6,144.6 271.9,147.5 273.3,149.0 274.7,152.4 276.0,153.0 277.4,149.8 278.8,152.8 280.1,156.1 281.5,156.4 282.8,155.7 284.2,150.9 285.6,148.4 286.9,146.5 288.3,144.2 289.7,144.1 291.0,145.2 292.4,146.9 293.8,146.7 295.1,145.8 296.5,143.7 297.9,145.2 299.2,143.5 300.6,144.3 301.9,146.4 303.3,144.7 304.7,145.0 306.0,146.7 307.4,149.7 308.8,154.0 310.1,157.9 311.5,161.8 312.9,165.0 314.2,168.1 315.6,169.6 317.0,170.7 318.3,169.7 319.7,169.3 321.1,161.5 322.4,161.3 323.8,160.0 325.1,159.4 326.5,156.7 327.9,152.8 329.2,149.3 330.6,154.9 332.0,154.4 333.3,152.6 334.7,159.1 336.1,158.1 337.4,156.4 338.8,154.5 340.2,154.1 341.5,156.0 342.9,158.3 344.2,154.3 345.6,157.7 347.0,158.2 348.3,157.9 349.7,158.1 351.1,160.4 352.4,165.8 353.8,170.7 355.2,173.0 356.5,175.9 357.9,175.2 359.3,175.3 360.6,177.9 362.0,179.5 363.3,179.4 364.7,177.6 366.1,174.7 367.4,171.7 368.8,172.6 370.2,172.4 371.5,173.0 372.9,173.4 374.3,170.4 375.6,172.2 377.0,170.1 378.4,171.8 379.7,169.6 381.1,167.0 382.4,164.1 383.8,164.9 385.2,168.0 386.5,169.4 387.9,170.7 389.3,168.0 390.6,170.7 392.0,172.7 393.4,176.6 394.7,181.9 396.1,183.8 397.5,183.8 398.8,182.3 400.2,184.5 401.6,187.1 402.9,189.9 404.3,189.9 405.6,186.6 407.0,186.6 408.4,186.8 409.7,188.5 411.1,187.5 412.5,185.5 413.8,180.7 415.2,179.4 416.6,176.0 417.9,175.6 419.3,176.4 420.7,174.3 422.0,173.2 423.4,173.5 424.7,176.2 426.1,175.7 427.5,176.8 428.8,170.9 430.2,173.0 431.6,175.1 432.9,176.6 434.3,179.3 435.7,180.3 437.0,179.6 438.4,177.3 439.8,179.3 441.1,181.6 442.5,183.6 443.8,183.6 445.2,187.1 446.6,181.5 447.9,179.0 449.3,176.6 450.7,175.2 452.0,177.0 453.4,178.3 454.8,177.4 456.1,178.3 457.5,176.5 458.9,172.3 460.2,175.9 461.6,176.8 462.9,178.3 464.3,179.5 465.7,178.5 467.0,176.0 468.4,176.1 469.8,176.0 471.1,174.9 472.5,176.6 473.9,179.4 475.2,183.2 476.6,184.1 478.0,184.4 479.3,186.2 480.7,187.1 482.1,191.0 483.4,195.2 484.8,201.9 486.1,204.5 487.5,202.2 488.9,202.0 490.2,203.2 491.6,206.6 493.0,203.7 494.3,204.2 495.7,204.6 497.1,203.1 498.4,199.9 499.8,197.7 501.2,199.0 502.5,195.6 503.9,195.7 505.2,194.6 506.6,196.8 508.0,195.2 509.3,193.1 510.7,192.1 512.1,193.5 513.4,193.6 514.8,193.8 516.2,195.5 517.5,194.2 518.9,192.3 520.3,190.8 521.6,187.8 523.0,188.9 524.3,187.9 525.7,181.6 527.1,181.6 528.4,176.4 529.8,173.6 531.2,171.7 532.5,171.8 533.9,170.9 535.3,172.6 536.6,172.7 538.0,174.5 539.4,178.5 540.7,177.8 542.1,182.0 543.4,185.3 544.8,187.5 546.2,186.6 547.5,188.3 548.9,190.1 550.3,188.2 551.6,186.6 553.0,183.3 554.4,180.3 555.7,177.7 557.1,178.5 558.5,176.5 559.8,179.0 561.2,178.2 562.6,176.4 563.9,177.6 565.3,177.4 566.6,178.6 568.0,180.3 569.4,182.7 570.7,179.8 572.1,182.8 573.5,179.9 574.8,178.9 576.2,179.1 577.6,178.5 578.9,181.3 580.3,179.8 581.7,181.2 583.0,179.9 584.4,181.2 585.7,177.2 587.1,176.5 588.5,177.6 589.8,178.2 591.2,178.3 592.6,175.2 593.9,178.7 595.3,178.3 596.7,184.2 598.0,184.9 599.4,189.2 600.8,192.9 602.1,192.2 603.5,193.0 604.8,194.7 606.2,196.0 607.6,195.1 608.9,193.3 610.3,189.6 611.7,186.7 613.0,183.8 614.4,182.4 615.8,182.9 617.1,182.3 618.5,181.6 619.9,179.1 621.2,178.3 622.6,180.8 623.9,179.9 625.3,177.8 626.7,177.8 628.0,177.9 629.4,180.7 630.8,180.6 632.1,178.3 633.5,180.2 634.9,180.6 636.2,179.5 637.6,185.5 639.0,189.2 640.3,189.6 641.7,186.4 643.1,179.3 644.4,181.1 645.8,180.2 647.1,178.7 648.5,180.0 649.9,180.3 651.2,176.2 652.6,174.9 654.0,176.9 655.3,178.9 656.7,182.8 658.1,186.4 659.4,186.7 660.8,184.1 662.2,184.4 663.5,182.4 664.9,183.0 666.2,181.9 667.6,181.5 669.0,177.7 670.3,178.7 671.7,176.9 673.1,176.6 674.4,179.3 675.8,178.9 677.2,183.8 678.5,183.0 679.9,182.3 681.3,184.0 682.6,182.3 684.0,184.1 685.3,185.1 686.7,186.6 688.1,187.4 689.4,187.4 690.8,181.7 692.2,182.0 693.5,181.5 694.9,181.1 696.3,182.9 697.6,179.3 699.0,178.3 700.4,177.6 701.7,170.5 703.1,169.2 704.4,170.1 705.8,170.4 707.2,171.8 708.5,170.2 709.9,168.8 711.3,172.1 712.6,171.1 714.0,170.1 715.4,175.5 716.7,175.9 718.1,177.2 719.5,180.2 720.8,181.1 722.2,183.6 723.6,185.9 724.9,184.1 726.3,181.9 727.6,184.2 729.0,181.6 730.4,180.0 731.7,175.6 733.1,171.8 734.5,167.6 735.8,165.4 737.2,167.0 738.6,167.0 739.9,168.5 741.3,166.2 742.7,166.3 744.0,168.1 745.4,171.0 746.7,169.0 748.1,172.1 749.5,171.5 750.8,169.2 752.2,171.1 753.6,175.3 754.9,178.6 756.3,181.3 757.7,181.5 759.0,185.0 760.4,192.5 761.8,196.3 763.1,200.6 764.5,201.5 765.8,198.4 767.2,195.6 768.6,191.9 769.9,192.3 771.3,194.4 772.7,189.3 774.0,184.9 775.4,179.1 776.8,178.5 778.1,177.8 779.5,181.9 780.9,182.3 782.2,187.8 783.6,189.9 784.9,189.3 786.3,191.2 787.7,190.9 789.0,190.4 790.4,187.0 791.8,188.0 793.1,188.2 794.5,190.2 795.9,187.8 797.2,184.2 798.6,182.9 800.0,184.4 801.3,187.9 802.7,191.3 804.1,191.7 805.4,190.0 806.8,186.8 808.1,183.7 809.5,184.1 810.9,184.6 812.2,183.4 813.6,178.5 815.0,171.0 816.3,168.9 817.7,168.1 819.1,168.5 820.4,167.7 821.8,169.6 823.2,170.0 824.5,171.7 825.9,175.2 827.2,180.6 828.6,183.8 830.0,188.0 831.3,191.2 832.7,193.5 834.1,194.4 835.4,193.9 836.8,195.3 838.2,195.3 839.5,197.3 840.9,197.0 842.3,199.3 843.6,197.7 845.0,196.5 846.3,195.1 847.7,193.5 849.1,194.2 850.4,190.8 851.8,187.5 853.2,185.7 854.5,185.7 855.9,185.7 857.3,182.4 858.6,182.3 860.0,184.6 861.4,185.9 862.7,186.7 864.1,188.5 865.4,189.9 866.8,184.5 868.2,185.5 869.5,186.4 870.9,187.9 872.3,187.0 873.6,182.9 875.0,181.2" fill="none" stroke="#0c6b58" stroke-width="3"/>
  <polyline points="70.0,305.0 71.4,287.7 72.7,270.3 74.1,253.0 75.5,218.3 76.8,201.0 78.2,183.7 79.6,166.3 80.9,149.0 82.3,131.7 83.6,114.3 85.0,97.0 86.4,79.7 87.7,62.3 89.1,45.0 90.5,45.0 91.8,45.0 93.2,45.0 94.6,45.0 95.9,45.0 97.3,45.0 98.7,45.0 100.0,45.0 101.4,45.0 102.7,45.0 104.1,45.0 105.5,45.0 106.8,45.0 108.2,45.0 109.6,45.0 110.9,45.0 112.3,45.0 113.7,45.0 115.0,45.0 116.4,45.0 117.8,45.0 119.1,45.0 120.5,45.0 121.8,45.0 123.2,45.0 124.6,45.0 125.9,45.0 127.3,45.0 128.7,45.0 130.0,45.0 131.4,45.0 132.8,45.0 134.1,45.0 135.5,45.0 136.9,45.0 138.2,45.0 139.6,45.0 140.9,45.0 142.3,45.0 143.7,45.0 145.0,45.0 146.4,45.0 147.8,45.0 149.1,45.0 150.5,45.0 151.9,45.0 153.2,45.0 154.6,45.0 156.0,45.0 157.3,45.0 158.7,45.0 160.1,45.0 161.4,45.0 162.8,45.0 164.1,45.0 165.5,45.0 166.9,45.0 168.2,45.0 169.6,45.0 171.0,45.0 172.3,45.0 173.7,45.0 175.1,45.0 176.4,45.0 177.8,45.0 179.2,45.0 180.5,45.0 181.9,45.0 183.2,45.0 184.6,45.0 186.0,45.0 187.3,45.0 188.7,45.0 190.1,45.0 191.4,45.0 192.8,45.0 194.2,45.0 195.5,45.0 196.9,45.0 198.3,45.0 199.6,45.0 201.0,45.0 202.3,45.0 203.7,45.0 205.1,45.0 206.4,45.0 207.8,45.0 209.2,45.0 210.5,45.0 211.9,45.0 213.3,45.0 214.6,45.0 216.0,45.0 217.4,45.0 218.7,45.0 220.1,45.0 221.4,45.0 222.8,45.0 224.2,45.0 225.5,45.0 226.9,45.0 228.3,45.0 229.6,45.0 231.0,45.0 232.4,45.0 233.7,45.0 235.1,45.0 236.5,45.0 237.8,45.0 239.2,45.0 240.6,45.0 241.9,45.0 243.3,45.0 244.6,45.0 246.0,45.0 247.4,45.0 248.7,45.0 250.1,45.0 251.5,45.0 252.8,45.0 254.2,45.0 255.6,45.0 256.9,45.0 258.3,45.0 259.7,45.0 261.0,45.0 262.4,45.0 263.7,45.0 265.1,45.0 266.5,45.0 267.8,45.0 269.2,45.0 270.6,45.0 271.9,45.0 273.3,45.0 274.7,45.0 276.0,45.0 277.4,45.0 278.8,45.0 280.1,45.0 281.5,45.0 282.8,45.0 284.2,45.0 285.6,45.0 286.9,45.0 288.3,45.0 289.7,45.0 291.0,45.0 292.4,45.0 293.8,45.0 295.1,45.0 296.5,45.0 297.9,45.0 299.2,45.0 300.6,45.0 301.9,45.0 303.3,45.0 304.7,45.0 306.0,45.0 307.4,45.0 308.8,45.0 310.1,45.0 311.5,45.0 312.9,45.0 314.2,45.0 315.6,45.0 317.0,45.0 318.3,45.0 319.7,45.0 321.1,45.0 322.4,45.0 323.8,45.0 325.1,45.0 326.5,45.0 327.9,45.0 329.2,45.0 330.6,45.0 332.0,45.0 333.3,45.0 334.7,45.0 336.1,45.0 337.4,45.0 338.8,45.0 340.2,45.0 341.5,45.0 342.9,45.0 344.2,45.0 345.6,45.0 347.0,45.0 348.3,45.0 349.7,45.0 351.1,45.0 352.4,45.0 353.8,45.0 355.2,45.0 356.5,45.0 357.9,45.0 359.3,45.0 360.6,45.0 362.0,45.0 363.3,45.0 364.7,45.0 366.1,45.0 367.4,45.0 368.8,45.0 370.2,45.0 371.5,45.0 372.9,45.0 374.3,45.0 375.6,45.0 377.0,45.0 378.4,45.0 379.7,45.0 381.1,45.0 382.4,45.0 383.8,45.0 385.2,45.0 386.5,45.0 387.9,45.0 389.3,45.0 390.6,45.0 392.0,45.0 393.4,45.0 394.7,45.0 396.1,45.0 397.5,45.0 398.8,45.0 400.2,45.0 401.6,45.0 402.9,45.0 404.3,45.0 405.6,45.0 407.0,45.0 408.4,45.0 409.7,45.0 411.1,45.0 412.5,45.0 413.8,45.0 415.2,45.0 416.6,45.0 417.9,45.0 419.3,45.0 420.7,45.0 422.0,45.0 423.4,45.0 424.7,45.0 426.1,45.0 427.5,45.0 428.8,45.0 430.2,45.0 431.6,45.0 432.9,45.0 434.3,45.0 435.7,45.0 437.0,45.0 438.4,45.0 439.8,45.0 441.1,45.0 442.5,45.0 443.8,45.0 445.2,45.0 446.6,45.0 447.9,45.0 449.3,45.0 450.7,45.0 452.0,45.0 453.4,45.0 454.8,45.0 456.1,45.0 457.5,45.0 458.9,45.0 460.2,45.0 461.6,45.0 462.9,45.0 464.3,45.0 465.7,45.0 467.0,45.0 468.4,45.0 469.8,45.0 471.1,45.0 472.5,45.0 473.9,45.0 475.2,45.0 476.6,45.0 478.0,45.0 479.3,45.0 480.7,45.0 482.1,45.0 483.4,45.0 484.8,45.0 486.1,45.0 487.5,45.0 488.9,45.0 490.2,45.0 491.6,45.0 493.0,45.0 494.3,45.0 495.7,45.0 497.1,45.0 498.4,45.0 499.8,45.0 501.2,45.0 502.5,45.0 503.9,45.0 505.2,45.0 506.6,45.0 508.0,45.0 509.3,45.0 510.7,45.0 512.1,45.0 513.4,45.0 514.8,45.0 516.2,45.0 517.5,45.0 518.9,45.0 520.3,45.0 521.6,45.0 523.0,45.0 524.3,45.0 525.7,45.0 527.1,45.0 528.4,45.0 529.8,45.0 531.2,45.0 532.5,45.0 533.9,45.0 535.3,45.0 536.6,45.0 538.0,45.0 539.4,45.0 540.7,45.0 542.1,45.0 543.4,45.0 544.8,45.0 546.2,45.0 547.5,45.0 548.9,45.0 550.3,45.0 551.6,45.0 553.0,45.0 554.4,45.0 555.7,45.0 557.1,45.0 558.5,45.0 559.8,45.0 561.2,45.0 562.6,45.0 563.9,45.0 565.3,45.0 566.6,45.0 568.0,45.0 569.4,45.0 570.7,45.0 572.1,45.0 573.5,45.0 574.8,45.0 576.2,45.0 577.6,45.0 578.9,45.0 580.3,45.0 581.7,45.0 583.0,45.0 584.4,45.0 585.7,45.0 587.1,45.0 588.5,45.0 589.8,45.0 591.2,45.0 592.6,45.0 593.9,45.0 595.3,45.0 596.7,45.0 598.0,45.0 599.4,45.0 600.8,45.0 602.1,45.0 603.5,45.0 604.8,45.0 606.2,45.0 607.6,45.0 608.9,45.0 610.3,45.0 611.7,45.0 613.0,45.0 614.4,45.0 615.8,45.0 617.1,45.0 618.5,45.0 619.9,45.0 621.2,45.0 622.6,45.0 623.9,45.0 625.3,45.0 626.7,45.0 628.0,45.0 629.4,45.0 630.8,45.0 632.1,45.0 633.5,45.0 634.9,45.0 636.2,45.0 637.6,45.0 639.0,45.0 640.3,45.0 641.7,45.0 643.1,45.0 644.4,45.0 645.8,45.0 647.1,45.0 648.5,45.0 649.9,45.0 651.2,45.0 652.6,45.0 654.0,45.0 655.3,45.0 656.7,45.0 658.1,45.0 659.4,45.0 660.8,45.0 662.2,45.0 663.5,45.0 664.9,45.0 666.2,45.0 667.6,45.0 669.0,45.0 670.3,45.0 671.7,45.0 673.1,45.0 674.4,45.0 675.8,45.0 677.2,45.0 678.5,45.0 679.9,45.0 681.3,45.0 682.6,45.0 684.0,45.0 685.3,45.0 686.7,45.0 688.1,45.0 689.4,45.0 690.8,45.0 692.2,45.0 693.5,45.0 694.9,45.0 696.3,45.0 697.6,45.0 699.0,45.0 700.4,45.0 701.7,45.0 703.1,45.0 704.4,45.0 705.8,45.0 707.2,45.0 708.5,45.0 709.9,45.0 711.3,45.0 712.6,45.0 714.0,45.0 715.4,45.0 716.7,45.0 718.1,45.0 719.5,45.0 720.8,45.0 722.2,45.0 723.6,45.0 724.9,45.0 726.3,45.0 727.6,45.0 729.0,45.0 730.4,45.0 731.7,45.0 733.1,45.0 734.5,45.0 735.8,45.0 737.2,45.0 738.6,45.0 739.9,45.0 741.3,45.0 742.7,45.0 744.0,45.0 745.4,45.0 746.7,45.0 748.1,45.0 749.5,45.0 750.8,45.0 752.2,45.0 753.6,45.0 754.9,45.0 756.3,45.0 757.7,45.0 759.0,45.0 760.4,45.0 761.8,45.0 763.1,45.0 764.5,45.0 765.8,45.0 767.2,45.0 768.6,45.0 769.9,45.0 771.3,45.0 772.7,45.0 774.0,45.0 775.4,45.0 776.8,45.0 778.1,45.0 779.5,45.0 780.9,45.0 782.2,45.0 783.6,45.0 784.9,45.0 786.3,45.0 787.7,45.0 789.0,45.0 790.4,45.0 791.8,45.0 793.1,45.0 794.5,45.0 795.9,45.0 797.2,45.0 798.6,45.0 800.0,45.0 801.3,45.0 802.7,45.0 804.1,45.0 805.4,45.0 806.8,45.0 808.1,45.0 809.5,45.0 810.9,45.0 812.2,45.0 813.6,45.0 815.0,45.0 816.3,45.0 817.7,45.0 819.1,45.0 820.4,45.0 821.8,45.0 823.2,45.0 824.5,45.0 825.9,45.0 827.2,45.0 828.6,45.0 830.0,45.0 831.3,45.0 832.7,45.0 834.1,45.0 835.4,45.0 836.8,45.0 838.2,45.0 839.5,45.0 840.9,45.0 842.3,45.0 843.6,45.0 845.0,45.0 846.3,45.0 847.7,45.0 849.1,45.0 850.4,45.0 851.8,45.0 853.2,45.0 854.5,45.0 855.9,45.0 857.3,45.0 858.6,45.0 860.0,45.0 861.4,45.0 862.7,45.0 864.1,45.0 865.4,45.0 866.8,45.0 868.2,45.0 869.5,45.0 870.9,45.0 872.3,45.0 873.6,45.0 875.0,45.0" fill="none" stroke="#c76d2c" stroke-width="2" stroke-dasharray="6 5" opacity="0.8"/>
  <text x="680" y="28" font-family="Verdana, sans-serif" font-size="12" fill="#0c6b58">solid: requests/sec</text>
  <text x="680" y="46" font-family="Verdana, sans-serif" font-size="12" fill="#c76d2c">dashed: user ramp</text>
  <text x="70" y="325" font-family="Verdana, sans-serif" font-size="12" fill="#5f574a">peak rps: 198.70</text>
</svg>
